<?xml version="1.0" encoding="UTF-8"?>
<mxfile host="app.diagrams.net" modified="2025-06-08T15:00:00.000Z" agent="5.0 (Windows)" etag="123456789" version="20.6.6" type="device">
  <diagram id="G0kW3dHx1qP-L3hG94Jx" name="Página-1">
    <mxGraphModel dx="980" dy="740" grid="1" gridSize="10" guides="1" tooltips="1" connect="1" arrows="1" fold="1" page="1" pageScale="1" pageWidth="827" pageHeight="1169" math="0" shadow="0">
      <root>
        <mxCell id="0"/>
        <mxCell id="1" parent="0"/>

        <!-- Classe Aluno -->
        <mxCell id="2" value="Aluno" style="rounded=1;whiteSpace=wrap;html=1;fillColor=#DAE8FC;strokeColor=#6C8EBF;fontSize=14;fontColor=#1A1A1A;" vertex="1" parent="1">
          <mxGeometry x="40" y="40" width="180" height="160" as="geometry"/>
        </mxCell>
        <mxCell id="3" value="- nome : string&#xa;- matricula : string&#xa;- curso : string" style="text;html=1;strokeColor=none;fillColor=none;align=left;verticalAlign=top;whiteSpace=wrap;rounded=0;fontSize=12;fontColor=#1A1A1A;" vertex="1" parent="2">
          <mxGeometry x="0" y="30" width="180" height="70" as="geometry"/>
        </mxCell>
        <mxCell id="4" value="+ Aluno()&#xa;+ Aluno(nome : string, matricula : string, curso : string)&#xa;+ exibirInformacoes() : void" style="text;html=1;strokeColor=none;fillColor=none;align=left;verticalAlign=top;whiteSpace=wrap;rounded=0;fontSize=12;fontColor=#1A1A1A;" vertex="1" parent="2">
          <mxGeometry x="0" y="100" width="180" height="60" as="geometry"/>
        </mxCell>

        <!-- Classe Disciplina -->
        <mxCell id="5" value="Disciplina" style="rounded=1;whiteSpace=wrap;html=1;fillColor=#FFE6CC;strokeColor=#D79B00;fontSize=14;fontColor=#1A1A1A;" vertex="1" parent="1">
          <mxGeometry x="300" y="40" width="200" height="160" as="geometry"/>
        </mxCell>
        <mxCell id="6" value="- nome : string&#xa;- cargaHoraria : int&#xa;- nota : float" style="text;html=1;strokeColor=none;fillColor=none;align=left;verticalAlign=top;whiteSpace=wrap;rounded=0;fontSize=12;fontColor=#1A1A1A;" vertex="1" parent="5">
          <mxGeometry x="0" y="30" width="200" height="70" as="geometry"/>
        </mxCell>
        <mxCell id="7" value="+ Disciplina()&#xa;+ Disciplina(nome : string, cargaHoraria : int, nota : float)&#xa;+ setNota(nota : float) : void&#xa;+ getNota() : float" style="text;html=1;strokeColor=none;fillColor=none;align=left;verticalAlign=top;whiteSpace=wrap;rounded=0;fontSize=12;fontColor=#1A1A1A;" vertex="1" parent="5">
          <mxGeometry x="0" y="100" width="200" height="80" as="geometry"/>
        </mxCell>

        <!-- Associação entre Aluno e Disciplina -->
        <mxCell id="8" style="edgeStyle=orthogonalEdgeStyle;rounded=0;orthogonalLoop=1;jettySize=auto;html=1;strokeColor=#000000;" edge="1" parent="1" source="2" target="5">
          <mxGeometry relative="1" as="geometry"/>
        </mxCell>
        <mxCell id="9" value="1" style="text;html=1;strokeColor=none;fillColor=none;align=left;fontSize=12;" vertex="1" parent="1">
          <mxGeometry x="120" y="25" width="20" height="20" as="geometry"/>
        </mxCell>
        <mxCell id="10" value="*" style="text;html=1;strokeColor=none;fillColor=none;align=right;fontSize=12;" vertex="1" parent="1">
          <mxGeometry x="450" y="25" width="20" height="20" as="geometry"/>
        </mxCell>

        <!-- Nota sobre função amiga -->
        <mxCell id="11" value="Função amiga: verificarAprovacao(Disciplina) : bool" style="rounded=1;whiteSpace=wrap;html=1;fillColor=#E1D5E7;strokeColor=#9673A6;fontSize=12;fontColor=#1A1A1A;fontStyle=2;" vertex="1" parent="1">
          <mxGeometry x="160" y="220" width="280" height="60" as="geometry"/>
        </mxCell>
      </root>
    </mxGraphModel>
  </diagram>
</mxfile>
